%TF.GenerationSoftware,KiCad,Pcbnew,9.0.4*%
%TF.CreationDate,2025-10-07T19:28:15-04:00*%
%TF.ProjectId,RC3,5243332e-6b69-4636-9164-5f7063625858,rev?*%
%TF.SameCoordinates,Original*%
%TF.FileFunction,Soldermask,Bot*%
%TF.FilePolarity,Negative*%
%FSLAX46Y46*%
G04 Gerber Fmt 4.6, Leading zero omitted, Abs format (unit mm)*
G04 Created by KiCad (PCBNEW 9.0.4) date 2025-10-07 19:28:15*
%MOMM*%
%LPD*%
G01*
G04 APERTURE LIST*
G04 Aperture macros list*
%AMRoundRect*
0 Rectangle with rounded corners*
0 $1 Rounding radius*
0 $2 $3 $4 $5 $6 $7 $8 $9 X,Y pos of 4 corners*
0 Add a 4 corners polygon primitive as box body*
4,1,4,$2,$3,$4,$5,$6,$7,$8,$9,$2,$3,0*
0 Add four circle primitives for the rounded corners*
1,1,$1+$1,$2,$3*
1,1,$1+$1,$4,$5*
1,1,$1+$1,$6,$7*
1,1,$1+$1,$8,$9*
0 Add four rect primitives between the rounded corners*
20,1,$1+$1,$2,$3,$4,$5,0*
20,1,$1+$1,$4,$5,$6,$7,0*
20,1,$1+$1,$6,$7,$8,$9,0*
20,1,$1+$1,$8,$9,$2,$3,0*%
%AMFreePoly0*
4,1,37,0.603843,0.796157,0.639018,0.796157,0.711114,0.766294,0.766294,0.711114,0.796157,0.639018,0.796157,0.603843,0.800000,0.600000,0.800000,-0.600000,0.796157,-0.603843,0.796157,-0.639018,0.766294,-0.711114,0.711114,-0.766294,0.639018,-0.796157,0.603843,-0.796157,0.600000,-0.800000,0.000000,-0.800000,0.000000,-0.796148,-0.078414,-0.796148,-0.232228,-0.765552,-0.377117,-0.705537,
-0.507515,-0.618408,-0.618408,-0.507515,-0.705537,-0.377117,-0.765552,-0.232228,-0.796148,-0.078414,-0.796148,0.078414,-0.765552,0.232228,-0.705537,0.377117,-0.618408,0.507515,-0.507515,0.618408,-0.377117,0.705537,-0.232228,0.765552,-0.078414,0.796148,0.000000,0.796148,0.000000,0.800000,0.600000,0.800000,0.603843,0.796157,0.603843,0.796157,$1*%
%AMFreePoly1*
4,1,37,0.000000,0.796148,0.078414,0.796148,0.232228,0.765552,0.377117,0.705537,0.507515,0.618408,0.618408,0.507515,0.705537,0.377117,0.765552,0.232228,0.796148,0.078414,0.796148,-0.078414,0.765552,-0.232228,0.705537,-0.377117,0.618408,-0.507515,0.507515,-0.618408,0.377117,-0.705537,0.232228,-0.765552,0.078414,-0.796148,0.000000,-0.796148,0.000000,-0.800000,-0.600000,-0.800000,
-0.603843,-0.796157,-0.639018,-0.796157,-0.711114,-0.766294,-0.766294,-0.711114,-0.796157,-0.639018,-0.796157,-0.603843,-0.800000,-0.600000,-0.800000,0.600000,-0.796157,0.603843,-0.796157,0.639018,-0.766294,0.711114,-0.711114,0.766294,-0.639018,0.796157,-0.603843,0.796157,-0.600000,0.800000,0.000000,0.800000,0.000000,0.796148,0.000000,0.796148,$1*%
G04 Aperture macros list end*
%ADD10C,1.600000*%
%ADD11R,1.700000X1.700000*%
%ADD12C,1.700000*%
%ADD13R,3.000000X3.000000*%
%ADD14C,3.000000*%
%ADD15RoundRect,0.249999X-0.850001X-0.850001X0.850001X-0.850001X0.850001X0.850001X-0.850001X0.850001X0*%
%ADD16C,2.200000*%
%ADD17RoundRect,0.250000X-1.350000X-1.350000X1.350000X-1.350000X1.350000X1.350000X-1.350000X1.350000X0*%
%ADD18C,3.200000*%
%ADD19R,2.600000X2.600000*%
%ADD20C,2.600000*%
%ADD21RoundRect,0.250000X-0.550000X-0.550000X0.550000X-0.550000X0.550000X0.550000X-0.550000X0.550000X0*%
%ADD22R,1.905000X2.000000*%
%ADD23O,1.905000X2.000000*%
%ADD24O,1.700000X1.700000*%
%ADD25R,1.050000X1.500000*%
%ADD26O,1.050000X1.500000*%
%ADD27C,2.400000*%
%ADD28RoundRect,0.200000X-0.600000X-0.600000X0.600000X-0.600000X0.600000X0.600000X-0.600000X0.600000X0*%
%ADD29FreePoly0,0.000000*%
%ADD30FreePoly1,0.000000*%
%ADD31C,3.600000*%
%ADD32C,6.400000*%
%ADD33RoundRect,0.250000X0.550000X-0.550000X0.550000X0.550000X-0.550000X0.550000X-0.550000X-0.550000X0*%
%ADD34RoundRect,0.250000X1.350000X1.350000X-1.350000X1.350000X-1.350000X-1.350000X1.350000X-1.350000X0*%
G04 APERTURE END LIST*
D10*
%TO.C,R2*%
X99060000Y-97790000D03*
X99060000Y-90170000D03*
%TD*%
D11*
%TO.C,J6*%
X33020000Y-66040000D03*
D12*
X33020000Y-68580000D03*
X33020000Y-71120000D03*
X33020000Y-73660000D03*
X33020000Y-76200000D03*
X33020000Y-78740000D03*
X33020000Y-81280000D03*
X33020000Y-83820000D03*
%TD*%
D13*
%TO.C,J3*%
X119380000Y-40640000D03*
D14*
X119380000Y-45720000D03*
%TD*%
D15*
%TO.C,D4*%
X104140000Y-85090000D03*
D16*
X114300000Y-85090000D03*
%TD*%
D11*
%TO.C,SW1*%
X69700000Y-53920000D03*
D12*
X76200000Y-53920000D03*
X69700000Y-58420000D03*
X76200000Y-58420000D03*
%TD*%
D17*
%TO.C,D2*%
X91440000Y-30480000D03*
D18*
X106680000Y-30480000D03*
%TD*%
D19*
%TO.C,J5*%
X109370000Y-57150000D03*
D20*
X115370000Y-57150000D03*
X112370000Y-52450000D03*
%TD*%
D10*
%TO.C,C7*%
X75971400Y-34457000D03*
X75971400Y-39457000D03*
%TD*%
%TO.C,C2*%
X91440000Y-85373550D03*
X91440000Y-80373550D03*
%TD*%
%TO.C,R6*%
X111760000Y-90170000D03*
X111760000Y-97790000D03*
%TD*%
D11*
%TO.C,J7*%
X32410400Y-111887000D03*
D12*
X32410400Y-109347000D03*
X32410400Y-106807000D03*
X32410400Y-104267000D03*
%TD*%
D21*
%TO.C,C8*%
X81356200Y-37617400D03*
D10*
X83856200Y-37617400D03*
%TD*%
D11*
%TO.C,J12*%
X76200000Y-85090000D03*
D12*
X76200000Y-87630000D03*
X76200000Y-90170000D03*
X76200000Y-92710000D03*
%TD*%
D22*
%TO.C,U5*%
X78740000Y-30480000D03*
D23*
X81280000Y-30480000D03*
X83820000Y-30480000D03*
%TD*%
D10*
%TO.C,C3*%
X99060000Y-102950000D03*
X99060000Y-107950000D03*
%TD*%
D11*
%TO.C,J11*%
X36995000Y-114650000D03*
D24*
X36995000Y-112110000D03*
X36995000Y-109570000D03*
X36995000Y-107030000D03*
%TD*%
D21*
%TO.C,C5*%
X97060000Y-82550000D03*
D10*
X99060000Y-82550000D03*
%TD*%
D11*
%TO.C,J1*%
X88925400Y-53340000D03*
D12*
X88925400Y-55880000D03*
X88925400Y-58420000D03*
X88925400Y-60960000D03*
X88925400Y-63500000D03*
X88925400Y-66040000D03*
X88925400Y-68580000D03*
%TD*%
D10*
%TO.C,R5*%
X111760000Y-110490000D03*
X111760000Y-118110000D03*
%TD*%
%TO.C,C1*%
X119380000Y-80010000D03*
X119380000Y-85010000D03*
%TD*%
%TO.C,R11*%
X76160000Y-109220000D03*
X76160000Y-116840000D03*
%TD*%
D25*
%TO.C,U1*%
X116840000Y-100330000D03*
D26*
X118110000Y-100330000D03*
X119380000Y-100330000D03*
%TD*%
D11*
%TO.C,J8*%
X32461200Y-91516200D03*
D12*
X32461200Y-94056200D03*
X32461200Y-96596200D03*
%TD*%
D27*
%TO.C,R1*%
X91440000Y-38100000D03*
X111760000Y-38100000D03*
%TD*%
D15*
%TO.C,D3*%
X104140000Y-80010000D03*
D16*
X114300000Y-80010000D03*
%TD*%
D10*
%TO.C,R4*%
X106680000Y-118110000D03*
X106680000Y-110490000D03*
%TD*%
D28*
%TO.C,A1*%
X40640000Y-30480000D03*
D10*
X40640000Y-33020000D03*
D29*
X40640000Y-35560000D03*
D10*
X40640000Y-38100000D03*
X40640000Y-40640000D03*
X40640000Y-43180000D03*
X40640000Y-45720000D03*
D29*
X40640000Y-48260000D03*
D10*
X40640000Y-50800000D03*
X40640000Y-53340000D03*
X40640000Y-55880000D03*
X40640000Y-58420000D03*
D29*
X40640000Y-60960000D03*
D10*
X40640000Y-63500000D03*
X40640000Y-66040000D03*
X40640000Y-68580000D03*
X40640000Y-71120000D03*
D29*
X40640000Y-73660000D03*
D10*
X40640000Y-76200000D03*
X40640000Y-78740000D03*
X58420000Y-78740000D03*
X58420000Y-76200000D03*
D30*
X58420000Y-73660000D03*
D10*
X58420000Y-71120000D03*
X58420000Y-68580000D03*
X58420000Y-66040000D03*
X58420000Y-63500000D03*
D30*
X58420000Y-60960000D03*
D10*
X58420000Y-58420000D03*
X58420000Y-55880000D03*
X58420000Y-53340000D03*
X58420000Y-50800000D03*
D30*
X58420000Y-48260000D03*
D10*
X58420000Y-45720000D03*
X58420000Y-43180000D03*
X58420000Y-40640000D03*
X58420000Y-38100000D03*
D30*
X58420000Y-35560000D03*
D10*
X58420000Y-33020000D03*
X58420000Y-30480000D03*
%TD*%
%TO.C,C4*%
X83860000Y-97790000D03*
X83860000Y-92790000D03*
%TD*%
D31*
%TO.C,H1*%
X119380000Y-30480000D03*
D32*
X119380000Y-30480000D03*
%TD*%
D21*
%TO.C,U4*%
X81240000Y-102870000D03*
D10*
X81240000Y-105410000D03*
X81240000Y-107950000D03*
X81240000Y-110490000D03*
X81240000Y-113030000D03*
X81240000Y-115570000D03*
X81240000Y-118110000D03*
X88860000Y-118110000D03*
X88860000Y-115570000D03*
X88860000Y-113030000D03*
X88860000Y-110490000D03*
X88860000Y-107950000D03*
X88860000Y-105410000D03*
X88860000Y-102870000D03*
%TD*%
D11*
%TO.C,J2*%
X101600000Y-53340000D03*
D12*
X101600000Y-55880000D03*
X101600000Y-58420000D03*
X101600000Y-60960000D03*
X101600000Y-63500000D03*
X101600000Y-66040000D03*
X101600000Y-68580000D03*
%TD*%
D10*
%TO.C,R3*%
X99060000Y-118110000D03*
X99060000Y-110490000D03*
%TD*%
D33*
%TO.C,U3*%
X104140000Y-107950000D03*
D10*
X106680000Y-107950000D03*
X109220000Y-107950000D03*
X111760000Y-107950000D03*
X111760000Y-100330000D03*
X109220000Y-100330000D03*
X106680000Y-100330000D03*
X104140000Y-100330000D03*
%TD*%
D31*
%TO.C,H3*%
X119380000Y-119380000D03*
D32*
X119380000Y-119380000D03*
%TD*%
D10*
%TO.C,C6*%
X86233000Y-44729400D03*
X81233000Y-44729400D03*
%TD*%
D11*
%TO.C,J9*%
X33020000Y-38100000D03*
D12*
X33020000Y-40640000D03*
X33020000Y-43180000D03*
X33020000Y-45720000D03*
X33020000Y-48260000D03*
X33020000Y-50800000D03*
X33020000Y-53340000D03*
X33020000Y-55880000D03*
X33020000Y-58420000D03*
%TD*%
D34*
%TO.C,D1*%
X106680000Y-45720000D03*
D18*
X91440000Y-45720000D03*
%TD*%
D10*
%TO.C,R7*%
X106680000Y-97790000D03*
X106680000Y-90170000D03*
%TD*%
D31*
%TO.C,H4*%
X30480000Y-30480000D03*
D32*
X30480000Y-30480000D03*
%TD*%
D10*
%TO.C,R13*%
X63500000Y-60960000D03*
X63500000Y-68580000D03*
%TD*%
%TO.C,R8*%
X93980000Y-118110000D03*
X93980000Y-110490000D03*
%TD*%
D11*
%TO.C,J10*%
X71120000Y-30480000D03*
D12*
X71120000Y-33020000D03*
X71120000Y-35560000D03*
X71120000Y-38100000D03*
X71120000Y-40640000D03*
X71120000Y-43180000D03*
X71120000Y-45720000D03*
X71120000Y-48260000D03*
%TD*%
D31*
%TO.C,H2*%
X30480000Y-119380000D03*
D32*
X30480000Y-119380000D03*
%TD*%
D10*
%TO.C,R10*%
X76160000Y-99060000D03*
X76160000Y-106680000D03*
%TD*%
D13*
%TO.C,J4*%
X119380000Y-68580000D03*
D14*
X119380000Y-73660000D03*
%TD*%
D25*
%TO.C,U2*%
X116840000Y-107950000D03*
D26*
X118110000Y-107950000D03*
X119380000Y-107950000D03*
%TD*%
D10*
%TO.C,R9*%
X93980000Y-97790000D03*
X93980000Y-90170000D03*
%TD*%
M02*
