M48
; DRILL file {KiCad 8.0.6} date 2025-01-01T15:21:50+0000
; FORMAT={-:-/ absolute / inch / decimal}
; #@! TF.CreationDate,2025-01-01T15:21:50+00:00
; #@! TF.GenerationSoftware,Kicad,Pcbnew,8.0.6
; #@! TF.FileFunction,Plated,1,2,PTH
FMAT,2
INCH
; #@! TA.AperFunction,Plated,PTH,ViaDrill
T1C0.0118
; #@! TA.AperFunction,Plated,PTH,ComponentDrill
T2C0.0315
; #@! TA.AperFunction,Plated,PTH,ComponentDrill
T3C0.0433
; #@! TA.AperFunction,Plated,PTH,ComponentDrill
T4C0.0437
; #@! TA.AperFunction,Plated,PTH,ComponentDrill
T5C0.0469
; #@! TA.AperFunction,Plated,PTH,ComponentDrill
T6C0.0598
; #@! TA.AperFunction,Plated,PTH,ComponentDrill
T7C0.1260
%
G90
G05
T1
X3.7Y-4.8433
X4.05Y-4.4
X4.35Y-4.45
X4.6Y-4.3
X4.8492Y-3.5008
T2
X2.95Y-3.95
X2.95Y-5.15
X3.0Y-3.5
X3.0Y-3.8
X3.0Y-4.7
X3.0Y-5.0
X3.0016Y-4.55
X3.0031Y-3.35
X3.1984Y-4.55
X3.2Y-3.35
X3.2Y-3.5
X3.2Y-3.8
X3.2Y-4.7
X3.2Y-5.0
X3.25Y-3.95
X3.25Y-5.15
X3.4Y-3.3
X3.4Y-3.6
X3.4Y-3.7
X3.4Y-4.0
X3.4Y-4.5
X3.4Y-4.8
X3.4Y-4.9
X3.4Y-5.2
X3.6Y-3.3
X3.6Y-3.6
X3.6Y-3.7
X3.6Y-4.0
X3.6Y-4.5
X3.6Y-4.8
X3.6Y-4.9
X3.6Y-5.2
X3.75Y-4.2016
X3.75Y-4.3984
X3.85Y-4.9
X3.85Y-5.2
X3.95Y-3.95
X3.95Y-4.05
X3.95Y-4.15
X3.95Y-4.25
X3.95Y-4.35
X3.95Y-4.45
X3.95Y-4.55
X4.05Y-4.9
X4.05Y-5.2
X4.0516Y-3.7
X4.2484Y-3.7
X4.25Y-3.95
X4.25Y-4.05
X4.25Y-4.15
X4.25Y-4.25
X4.25Y-4.35
X4.25Y-4.45
X4.25Y-4.55
X4.25Y-4.9
X4.25Y-5.2
X4.45Y-3.65
X4.45Y-3.75
X4.45Y-3.85
X4.45Y-3.95
X4.45Y-4.05
X4.45Y-4.15
X4.45Y-4.25
X4.45Y-4.9
X4.45Y-5.2
X4.5516Y-3.4
X4.7484Y-3.4
X4.75Y-3.65
X4.75Y-3.75
X4.75Y-3.85
X4.75Y-3.95
X4.75Y-4.05
X4.75Y-4.15
X4.75Y-4.25
T3
X2.2Y-3.35
X2.2Y-3.95
X2.2Y-4.55
X2.2Y-5.15
T4
X2.65Y-4.6
X2.65Y-5.1
X2.675Y-3.4
X2.675Y-3.9
T5
X4.75Y-4.5
X4.75Y-4.6
X4.75Y-4.7
X4.75Y-4.8
X4.75Y-4.9
X4.75Y-5.0
T6
X2.2Y-3.5622
X2.2Y-3.7622
X2.2Y-4.75
X2.2Y-4.95
T7
X2.3Y-3.15
X2.3Y-5.35
X4.85Y-3.15
X4.85Y-5.35
M30
