%TF.GenerationSoftware,KiCad,Pcbnew,8.0.6*%
%TF.CreationDate,2025-01-01T15:21:23+00:00*%
%TF.ProjectId,RC2,5243322e-6b69-4636-9164-5f7063625858,0*%
%TF.SameCoordinates,Original*%
%TF.FileFunction,Soldermask,Bot*%
%TF.FilePolarity,Negative*%
%FSLAX46Y46*%
G04 Gerber Fmt 4.6, Leading zero omitted, Abs format (unit mm)*
G04 Created by KiCad (PCBNEW 8.0.6) date 2025-01-01 15:21:23*
%MOMM*%
%LPD*%
G01*
G04 APERTURE LIST*
G04 Aperture macros list*
%AMRoundRect*
0 Rectangle with rounded corners*
0 $1 Rounding radius*
0 $2 $3 $4 $5 $6 $7 $8 $9 X,Y pos of 4 corners*
0 Add a 4 corners polygon primitive as box body*
4,1,4,$2,$3,$4,$5,$6,$7,$8,$9,$2,$3,0*
0 Add four circle primitives for the rounded corners*
1,1,$1+$1,$2,$3*
1,1,$1+$1,$4,$5*
1,1,$1+$1,$6,$7*
1,1,$1+$1,$8,$9*
0 Add four rect primitives between the rounded corners*
20,1,$1+$1,$2,$3,$4,$5,0*
20,1,$1+$1,$4,$5,$6,$7,0*
20,1,$1+$1,$6,$7,$8,$9,0*
20,1,$1+$1,$8,$9,$2,$3,0*%
G04 Aperture macros list end*
%ADD10C,3.600000*%
%ADD11C,6.400000*%
%ADD12C,1.600000*%
%ADD13O,1.600000X1.600000*%
%ADD14RoundRect,0.250000X-0.845000X0.620000X-0.845000X-0.620000X0.845000X-0.620000X0.845000X0.620000X0*%
%ADD15O,2.190000X1.740000*%
%ADD16RoundRect,0.250001X-0.799999X-0.799999X0.799999X-0.799999X0.799999X0.799999X-0.799999X0.799999X0*%
%ADD17C,1.665000*%
%ADD18R,1.600000X1.600000*%
%ADD19R,3.000000X3.000000*%
%ADD20C,3.000000*%
G04 APERTURE END LIST*
D10*
%TO.C,REF\u002A\u002A*%
X123190000Y-135890000D03*
D11*
X123190000Y-135890000D03*
%TD*%
D10*
%TO.C,REF\u002A\u002A*%
X58420000Y-135890000D03*
D11*
X58420000Y-135890000D03*
%TD*%
D10*
%TO.C,REF\u002A\u002A*%
X58420000Y-80010000D03*
D11*
X58420000Y-80010000D03*
%TD*%
D10*
%TO.C,REF\u002A\u002A*%
X123190000Y-80010000D03*
D11*
X123190000Y-80010000D03*
%TD*%
D12*
%TO.C,R3*%
X91440000Y-91440000D03*
D13*
X91440000Y-83820000D03*
%TD*%
D12*
%TO.C,C3*%
X107910000Y-93980000D03*
X102910000Y-93980000D03*
%TD*%
D14*
%TO.C,J8*%
X120650000Y-114300000D03*
D15*
X120650000Y-116840000D03*
X120650000Y-119380000D03*
X120650000Y-121920000D03*
X120650000Y-124460000D03*
X120650000Y-127000000D03*
%TD*%
D16*
%TO.C,J3*%
X55880000Y-85090000D03*
%TD*%
D12*
%TO.C,R2*%
X107950000Y-132080000D03*
D13*
X107950000Y-124460000D03*
%TD*%
D12*
%TO.C,R4*%
X86360000Y-83820000D03*
D13*
X86360000Y-91440000D03*
%TD*%
D17*
%TO.C,T1*%
X67945000Y-99060000D03*
X67945000Y-86360000D03*
%TD*%
D18*
%TO.C,D1*%
X81280000Y-88900000D03*
D13*
X81280000Y-96520000D03*
%TD*%
D12*
%TO.C,R7*%
X74930000Y-100330000D03*
D13*
X82550000Y-100330000D03*
%TD*%
D18*
%TO.C,D12*%
X76200000Y-127000000D03*
D13*
X76200000Y-119380000D03*
%TD*%
D12*
%TO.C,R14*%
X86360000Y-114300000D03*
D13*
X86360000Y-121920000D03*
%TD*%
D12*
%TO.C,R5*%
X86360000Y-93980000D03*
D13*
X86360000Y-101600000D03*
%TD*%
D16*
%TO.C,J7*%
X55880000Y-130810000D03*
%TD*%
D19*
%TO.C,J5*%
X55880000Y-120650000D03*
D20*
X55880000Y-125730000D03*
%TD*%
D12*
%TO.C,C12*%
X81240000Y-115570000D03*
X76240000Y-115570000D03*
%TD*%
%TO.C,C1*%
X120610000Y-86360000D03*
X115610000Y-86360000D03*
%TD*%
D18*
%TO.C,U2*%
X113030000Y-92710000D03*
D13*
X113030000Y-95250000D03*
X113030000Y-97790000D03*
X113030000Y-100330000D03*
X113030000Y-102870000D03*
X113030000Y-105410000D03*
X113030000Y-107950000D03*
X120650000Y-107950000D03*
X120650000Y-105410000D03*
X120650000Y-102870000D03*
X120650000Y-100330000D03*
X120650000Y-97790000D03*
X120650000Y-95250000D03*
X120650000Y-92710000D03*
%TD*%
D16*
%TO.C,J6*%
X55880000Y-115570000D03*
%TD*%
D12*
%TO.C,R16*%
X91440000Y-132080000D03*
D13*
X91440000Y-124460000D03*
%TD*%
D19*
%TO.C,J1*%
X55880000Y-90480000D03*
D20*
X55880000Y-95560000D03*
%TD*%
D12*
%TO.C,R11*%
X97790000Y-132080000D03*
D13*
X97790000Y-124460000D03*
%TD*%
D18*
%TO.C,D2*%
X76200000Y-96520000D03*
D13*
X76200000Y-88900000D03*
%TD*%
D12*
%TO.C,R6*%
X91440000Y-101600000D03*
D13*
X91440000Y-93980000D03*
%TD*%
D12*
%TO.C,R13*%
X91440000Y-121920000D03*
D13*
X91440000Y-114300000D03*
%TD*%
D16*
%TO.C,J2*%
X55880000Y-100330000D03*
%TD*%
D17*
%TO.C,T2*%
X67310000Y-129540000D03*
X67310000Y-116840000D03*
%TD*%
D12*
%TO.C,R1*%
X102870000Y-132080000D03*
D13*
X102870000Y-124460000D03*
%TD*%
D12*
%TO.C,C5*%
X95250000Y-106720000D03*
X95250000Y-111720000D03*
%TD*%
D18*
%TO.C,D11*%
X81280000Y-119380000D03*
D13*
X81280000Y-127000000D03*
%TD*%
D18*
%TO.C,U1*%
X100330000Y-100330000D03*
D13*
X100330000Y-102870000D03*
X100330000Y-105410000D03*
X100330000Y-107950000D03*
X100330000Y-110490000D03*
X100330000Y-113030000D03*
X100330000Y-115570000D03*
X107950000Y-115570000D03*
X107950000Y-113030000D03*
X107950000Y-110490000D03*
X107950000Y-107950000D03*
X107950000Y-105410000D03*
X107950000Y-102870000D03*
X107950000Y-100330000D03*
%TD*%
D12*
%TO.C,R15*%
X86360000Y-124460000D03*
D13*
X86360000Y-132080000D03*
%TD*%
D12*
%TO.C,C2*%
X81280000Y-85090000D03*
X76280000Y-85090000D03*
%TD*%
%TO.C,R17*%
X74930000Y-130810000D03*
D13*
X82550000Y-130810000D03*
%TD*%
D12*
%TO.C,R12*%
X113030000Y-132080000D03*
D13*
X113030000Y-124460000D03*
%TD*%
M02*
